<svg xmlns="http://www.w3.org/2000/svg" width="107" height="29" viewBox="0 0 107 29">
  <g fill="#183C87">
    <path d="M15.5659051,12 C14.7644991,12 14.1318102,12.6681818 14.1318102,13.5 C14.1318102,14.3318182 14.7785589,15 15.5659051,15 C16.3673111,15 17,14.3318182 17,13.5 C17,12.6681818 16.3532513,12 15.5659051,12 Z M10.4340949,12 C9.63268893,12 9,12.6681818 9,13.5 C9,14.3318182 9.64674868,15 10.4340949,15 C11.2355009,15 11.8681898,14.3318182 11.8681898,13.5 C11.8822496,12.6681818 11.2355009,12 10.4340949,12 Z"/>
    <path d="M22.7832139,0 L3.02301544,0 C1.35667034,0 0,1.34543621 0,2.99798285 L0,22.5945537 C0,24.2471004 1.35667034,25.5925366 3.02301544,25.5925366 L19.745452,25.5925366 L18.963892,22.9162885 L20.8514333,24.6419566 L22.6357497,26.2652547 L25.8209757,29 L25.8209757,2.99798285 C25.8062293,1.34543621 24.449559,0 22.7832139,0 Z M17.091097,18.9384771 C17.091097,18.9384771 16.560226,18.3096319 16.1178335,17.7685325 C18.0496141,17.2274332 18.786935,16.0428643 18.786935,16.0428643 C18.1823319,16.4377206 17.6072216,16.7155825 17.091097,16.9056984 C16.3537762,17.2128089 15.6459482,17.4029249 14.9528666,17.5345436 C13.5372106,17.7977811 12.2395259,17.7246596 11.1335447,17.5199193 C10.2929989,17.3590519 9.57042448,17.1396873 8.96582139,16.8910741 C8.6266538,16.7594554 8.25799338,16.598588 7.88933297,16.3938477 C7.84509372,16.3645991 7.80085447,16.3499748 7.75661521,16.3207262 C7.72712238,16.3061019 7.71237596,16.2914776 7.69762955,16.2914776 C7.43219405,16.1452345 7.28472988,16.0428643 7.28472988,16.0428643 C7.28472988,16.0428643 7.99255788,17.1981846 9.86535281,17.7539082 C9.42296031,18.3096319 8.87734289,18.9531014 8.87734289,18.9531014 C5.61838479,18.8507312 4.37968578,16.7448311 4.37968578,16.7448311 C4.37968578,12.0796773 6.50316979,8.29198185 6.50316979,8.29198185 C8.6266538,6.72718104 10.6321665,6.77105396 10.6321665,6.77105396 L10.7796307,6.94654564 C8.12527563,7.69238527 6.91606946,8.8477055 6.91606946,8.8477055 C6.91606946,8.8477055 7.24049063,8.67221382 7.78610805,8.43822491 C9.36397464,7.7508825 10.6174201,7.57539082 11.1335447,7.5168936 C11.2220232,7.50226929 11.2957552,7.48764498 11.3842337,7.48764498 C12.2837652,7.37065053 13.3012679,7.34140192 14.3630099,7.45839637 C15.7639195,7.61926374 17.268054,8.02874433 18.8016814,8.8477055 C18.8016814,8.8477055 17.6367144,7.7508825 15.1298236,7.00504286 L15.3362734,6.77105396 C15.3362734,6.77105396 17.3565325,6.72718104 19.4652701,8.29198185 C19.4652701,8.29198185 21.5887541,12.0796773 21.5887541,16.7448311 C21.5887541,16.7302068 20.3500551,18.8361069 17.091097,18.9384771 Z M39.3581863,6.25920323 L34.462376,6.25920323 L34.462376,11.7140696 L37.7213341,14.6243066 L37.7213341,9.33030761 L39.4614112,9.33030761 C40.5673925,9.33030761 41.1130099,9.85678265 41.1130099,10.7049924 L41.1130099,14.7559254 C41.1130099,15.6041351 40.5968853,16.1744831 39.4614112,16.1744831 L34.4476295,16.1744831 L34.4476295,19.2603336 L39.3434399,19.2602118 C41.9683021,19.2748361 44.4309537,17.9732728 44.4309537,14.9899143 L44.4309537,10.6318709 C44.4457001,7.59001513 41.9830485,6.25920323 39.3581863,6.25920323 Z M65.0169515,14.9899143 L65.0169515,10.5148764 C65.0169515,8.90620272 67.936742,8.54059506 68.821527,10.1492688 L71.5201213,9.0670701 C70.4583793,6.75642965 68.5265987,6.08371155 66.9192393,6.08371155 C64.2943771,6.08371155 61.6990077,7.59001513 61.6990077,10.5148764 L61.6990077,14.9899143 C61.6990077,17.9440242 64.2943771,19.4210792 66.8602536,19.4210792 C68.5118523,19.4210792 70.4878721,18.6167423 71.5791069,16.5108422 L68.6888093,15.1946546 C67.9809813,16.9934443 65.0169515,16.5547151 65.0169515,14.9899143 Z M56.0953693,11.1290973 C55.0778666,10.9097327 54.3995314,10.5441251 54.3552922,9.91527988 C54.4142778,8.4089763 56.7589581,8.35047907 58.1303749,9.79828543 L60.2980981,8.14573878 C58.9414278,6.50781644 57.4078004,6.06908724 55.8299338,6.06908724 C53.4262679,6.06908724 51.0963341,7.41452345 51.0963341,9.9591528 C51.0963341,12.4306606 53.0133682,13.7614725 55.1221058,14.0832073 C56.1985943,14.2294503 57.393054,14.6535552 57.3635612,15.3847705 C57.2750827,16.7740797 54.384785,16.7009581 53.0723539,15.121533 L50.9783627,17.0665658 C52.2023153,18.6313666 53.8686604,19.4210792 55.4317806,19.4210792 C57.8354465,19.4210792 60.504548,18.0463944 60.6077729,15.5310136 C60.755237,12.3575391 58.4253032,11.5532022 56.0953693,11.1290973 Z M46.2152701,19.2455875 L49.5184675,19.2455875 L49.5184675,6.25920323 L46.2152701,6.25920323 L46.2152701,19.2455875 Z M101.912486,6.25920323 L97.0166759,6.25920323 L97.0166759,11.7140696 L100.275634,14.6243066 L100.275634,9.33030761 L102.015711,9.33030761 C103.121692,9.33030761 103.66731,9.85678265 103.66731,10.7049924 L103.66731,14.7559254 C103.66731,15.6041351 103.151185,16.1744831 102.015711,16.1744831 L97.0019294,16.1744831 L97.0019294,19.2603336 L101.912486,19.2602118 C104.537348,19.2748361 107,17.9732728 107,14.9899143 L107,10.6318709 C107,7.59001513 104.537348,6.25920323 101.912486,6.25920323 Z M77.8905733,6.08371155 C75.1772326,6.08371155 72.4786384,7.54614221 72.4786384,10.5441251 L72.4786384,14.97529 C72.4786384,17.9440242 75.1919791,19.4357035 77.9200662,19.4357035 C80.6334068,19.4357035 83.3320011,17.9440242 83.3320011,14.97529 L83.3320011,10.5441251 C83.3320011,7.56076652 80.603914,6.08371155 77.8905733,6.08371155 Z M80.0140573,14.97529 C80.0140573,15.9112456 78.9523153,16.3938477 77.9053197,16.3938477 C76.8435777,16.3938477 75.7818357,15.9404942 75.7818357,14.97529 L75.7818357,10.5441251 C75.7818357,9.59354513 76.8140849,9.0816944 77.8463341,9.0816944 C78.9228225,9.0816944 80.0140573,9.53504791 80.0140573,10.5441251 L80.0140573,14.97529 Z M95.1881202,10.5441251 C95.1143881,7.50226929 93.0203969,6.27382753 90.3218026,6.27382753 L85.0868247,6.27382753 L85.0868247,19.2602118 L88.4342613,19.2602118 L88.4342613,15.1361573 L89.024118,15.1361573 L92.0618798,19.2602118 L96.1908765,19.2602118 L92.6222437,14.7997983 C94.2001103,14.3025719 95.1881202,12.9425113 95.1881202,10.5441251 Z M90.3807883,12.2990419 L88.4342613,12.2990419 L88.4342613,9.33030761 L90.3807883,9.33030761 C92.4600331,9.33030761 92.4600331,12.2990419 90.3807883,12.2990419 Z"/>
  </g>
</svg>
