<svg xmlns="http://www.w3.org/2000/svg" width="151" height="15" viewBox="0 0 151 15">
  <g fill="#F7F7F7" fill-rule="evenodd">
    <path d="M42.3487168,11.7264706 L42.3487168,14.7941176 L31,14.7941176 L31,11.85 L37.8443292,4.27352941 L31.0974976,4.27352941 L31.0974976,1.20588235 L42.1342222,1.20588235 L42.1342222,4.15 L35.3093925,11.7264706 L42.3487168,11.7264706 Z M60.4637638,11.6441176 L60.4637638,14.7941176 L49.836529,14.7941176 L49.836529,1.20588235 L60.2102702,1.20588235 L60.2102702,4.35588235 L53.8144298,4.35588235 L53.8144298,6.55882353 L58.9233023,6.55882353 L58.9233023,9.48235294 L53.8144298,9.48235294 L53.8144298,11.6441176 L60.4637638,11.6441176 Z M78.0328245,11.6441176 L78.0328245,14.7941176 L67.9320766,14.7941176 L67.9320766,1.20588235 L71.9099773,1.20588235 L71.9099773,11.6441176 L78.0328245,11.6441176 Z M96.5768608,11.3558824 C96.2128681,12.5088293 95.5791403,13.4044086 94.6756583,14.0426471 C93.7721763,14.6808855 92.6899641,15 91.4289893,15 C90.2590126,15 89.2320485,14.7151989 88.3480662,14.1455882 C87.4640838,13.5759775 86.7816077,12.7627504 86.3006173,11.7058824 C85.8196269,10.6490143 85.5791353,9.41373256 85.5791353,8 C85.5791353,6.58626744 85.8196269,5.35098568 86.3006173,4.29411765 C86.7816077,3.23724962 87.4640838,2.42402246 88.3480662,1.85441176 C89.2320485,1.28480107 90.2525129,1 91.4094898,1 C93.9834384,1 95.6473803,2.11861626 96.4013652,4.35588235 L95.4458891,4.82941176 C95.146895,3.86862265 94.6691617,3.14804162 94.0126748,2.66764706 C93.3561879,2.1872525 92.5079676,1.94705882 91.4679883,1.94705882 C90.5060075,1.94705882 89.6577872,2.19068384 88.9233018,2.67794118 C88.1888165,3.16519851 87.6200864,3.86519151 87.2170944,4.77794118 C86.8141024,5.69069084 86.6126095,6.76469971 86.6126095,8 C86.6126095,9.23530029 86.8108526,10.3093092 87.2073446,11.2220588 C87.6038367,12.1348085 88.1628172,12.8348015 88.8843028,13.3220588 C89.6057884,13.8093162 90.4540087,14.0529412 91.4289893,14.0529412 C92.4689685,14.0529412 93.3529376,13.7852968 94.0809231,13.25 C94.8089086,12.7147032 95.3158909,11.9529461 95.6018852,10.9647059 L96.5768608,11.3558824 Z M112.429964,10.5323529 L106.268118,10.5323529 L104.669158,14.7941176 L103.635684,14.7941176 L108.783555,1.20588235 L109.934027,1.20588235 L115.081898,14.7941176 L114.048424,14.7941176 L112.429964,10.5323529 Z M112.078973,9.58529412 L109.836529,3.65588235 L109.368541,2.21470588 L109.349041,2.21470588 L108.881053,3.61470588 L106.638609,9.58529412 L112.078973,9.58529412 Z M127.152096,1 C129.570048,1 131.188491,2.00195076 132.007475,4.00588235 L131.168996,4.72647059 C130.844002,3.75195591 130.359769,3.04510024 129.716282,2.60588235 C129.072795,2.16666447 128.224575,1.94705882 127.171596,1.94705882 C126.417611,1.94705882 125.761134,2.070587 125.202145,2.31764706 C124.643156,2.56470712 124.217421,2.90097826 123.924927,3.32647059 C123.632432,3.75196291 123.486187,4.23235026 123.486187,4.76764706 C123.486187,5.28921829 123.609683,5.72156691 123.856678,6.06470588 C124.103673,6.40784485 124.522909,6.6995086 125.114397,6.93970588 C125.705885,7.17990316 126.521607,7.39607747 127.561586,7.58823529 C129.238552,7.89019759 130.428011,8.32940888 131.129997,8.90588235 C131.831983,9.48235582 132.18297,10.2784263 132.18297,11.2941176 C132.18297,12.0215723 131.981478,12.6666639 131.578486,13.2294118 C131.175494,13.7921597 130.606763,14.2279396 129.872278,14.5367647 C129.137793,14.8455898 128.296072,15 127.347091,15 C125.995118,15 124.854408,14.7151989 123.924927,14.1455882 C122.995445,13.5759775 122.361717,12.7764757 122.023724,11.7470588 L122.881703,11.0470588 C123.141697,12.0215735 123.664929,12.7661739 124.451413,13.2808824 C125.237898,13.7955908 126.209614,14.0529412 127.366591,14.0529412 C128.484568,14.0529412 129.397786,13.8127475 130.106272,13.3323529 C130.814758,12.8519584 131.168996,12.1931414 131.168996,11.3558824 C131.168996,10.6284277 130.879756,10.0519629 130.301267,9.62647059 C129.722779,9.20097826 128.718564,8.85784444 127.288593,8.59705882 C126.079617,8.37744988 125.12415,8.1098055 124.422164,7.79411765 C123.720178,7.47842979 123.216446,7.08725724 122.910952,6.62058824 C122.605458,6.15391924 122.452713,5.57059174 122.452713,4.87058824 C122.452713,4.17058474 122.644457,3.52549315 123.027949,2.93529412 C123.411441,2.34509509 123.957422,1.87500175 124.665908,1.525 C125.374394,1.17499825 126.203115,1 127.152096,1 Z M151,1.20588235 L151,14.7941176 L150.025024,14.7941176 L150.025024,8.37058824 L142.069223,8.37058824 L142.069223,14.7941176 L141.094247,14.7941176 L141.094247,1.20588235 L142.069223,1.20588235 L142.069223,7.40294118 L150.025024,7.40294118 L150.025024,1.20588235 L151,1.20588235 Z"/>
    <polygon points="3.697 5.625 0 7.937 0 12.683 3.697 15 7.391 12.683 7.391 7.937"/>
    <polygon points="16.332 5.625 12.609 7.942 12.609 12.677 16.332 15 20 12.677 20 7.942"/>
    <polygon points="5.217 3.056 5.217 4.759 8.727 6.941 8.727 11.396 9.992 12.188 11.302 11.396 11.302 6.941 14.783 4.759 14.783 3.056 10 0"/>
  </g>
</svg>
