<svg id="Bitcore" xmlns="http://www.w3.org/2000/svg" width="256" height="256" viewBox="0 0 512 512">
<defs>
    <style>
      .cls-1 {
        fill: #ff18a1;
      }

      .cls-1, .cls-2 {
        fill-rule: evenodd;
      }

      .cls-2 {
        fill: #fff;
      }
    </style>
  </defs>
  <path id="Main_copy_11" data-name="Main copy 11" class="cls-1" d="M11,256c0,135.094,109.906,245,245,245S501,391.094,501,256,391.094,11,256,11,11,120.906,11,256Z"/>
  <path id="B" class="cls-2" d="M253.99,100l-12,44L188,131l-7,29,23,5s12.22,6.041,9,16c-2.327,9.2-30,120-30,120s-1.465,7.814-13,6c-10.087-2.462-18-5-18-5l-14,32L192,348l-11,44,27,7,11-44,21,5-11,44,28,7,10-44s83.63,20.468,95.983-39c15.454-49.119-25-63-25-63s29.809-6.344,33.994-38c9.847-47.187-53.99-64-53.99-64l11-44-26.995-7-10,43-22-5,11-43Zm9,82s61.684,9.383,55.989,41c-5.787,34.921-68.987,13-68.987,13Zm-20,82-15,58s74.244,24.473,81.985-10C321.258,272.755,242.992,264,242.992,264Z"/>
  <path id="CORE" class="cls-2" d="M131.223,273.263a7.1,7.1,0,0,1,.476,5.156,7.768,7.768,0,0,1-4.336,5.278q-3.345,1.581-9.769-.141-6.054-1.623-8.129-4.693a7.979,7.979,0,0,1-1.066-6.837,7.244,7.244,0,0,1,7.6-5.618l0.2-7.205a13.831,13.831,0,0,0-7.168,1.8,14.589,14.589,0,0,0-6.379,9.114,15.5,15.5,0,0,0,1.6,12.74q3.508,5.622,11.966,7.889,8,2.142,13.768-.967a16.525,16.525,0,0,0,7.3-19.581q-1.741-4.267-6.878-7.28l-3.88,6.069A10.425,10.425,0,0,1,131.223,273.263Zm8.278-19.02q5.805-3.225,7.829-10.782,2-7.466-1.438-13.167t-11.641-7.9q-8.271-2.217-14.12,1.033t-7.855,10.738a19.262,19.262,0,0,0-.616,7.663,13.659,13.659,0,0,0,1.876,5.2,16.521,16.521,0,0,0,3.8,4.4,22.283,22.283,0,0,0,8.273,3.876Q133.7,257.467,139.5,254.243Zm-20.287-10.985a9.8,9.8,0,0,1,3.609-13.61q3.549-1.787,9.372-.226,5.892,1.579,8.135,4.992A9.46,9.46,0,0,1,136.7,247.87q-3.681,1.861-9.435.32Q121.421,246.623,119.214,243.258Zm35.577-29.96-14.141-3.789,0.372-1.387a11.639,11.639,0,0,1,1.3-3.341,5.426,5.426,0,0,1,1.96-1.679,49.335,49.335,0,0,1,5.945-2.271l8.7-2.971,2.192-8.181-7.717,2.366a39.993,39.993,0,0,0-6.542,2.42,16.545,16.545,0,0,0-3.824,2.9,11.14,11.14,0,0,0-1.335-7.541,9.368,9.368,0,0,0-5.7-3.93,10.108,10.108,0,0,0-5.734.049,8.061,8.061,0,0,0-4.3,3.07,25.531,25.531,0,0,0-3.027,7.648l-3.857,14.4,33.874,9.078Zm-28.143-7.542,1.43-5.339q1.114-4.16,1.453-4.961a4.339,4.339,0,0,1,2.019-2.22,4.2,4.2,0,0,1,3.006-.173,4.564,4.564,0,0,1,2.356,1.374,3.813,3.813,0,0,1,.918,2.3A26.971,26.971,0,0,1,136.6,203l-1.356,5.062Zm42.745-46.962-5.707-1.53-5.071,18.927-9.219-2.47,4.557-17.01-5.708-1.529-4.556,17.009-7.51-2.012,4.9-18.281-5.73-1.536-6.73,25.122,33.874,9.078Z"/>
</svg>
