<svg id="Buy" data-name="Buy" xmlns="http://www.w3.org/2000/svg" width="512" height="512" viewBox="0 0 512 512">
<defs>
    <style>
      .cls-1 {
        fill: #3f9f31;
      }

      .cls-1, .cls-2 {
        fill-rule: evenodd;
      }

      .cls-2 {
        fill: #e6e6e6;
      }
    </style>
  </defs>
  <path id="Main" class="cls-1" d="M10,255c0,135.094,109.906,245,245,245S500,390.094,500,255,390.094,10,255,10,10,119.906,10,255Zm19.6,0C29.6,130.714,130.714,29.6,255,29.6S480.4,130.714,480.4,255,379.286,480.4,255,480.4,29.6,379.286,29.6,255Z"/>
  <path id="BUY" class="cls-2" d="M104.007,316.344h46.618a61.036,61.036,0,0,0,16.626-2.119,36.59,36.59,0,0,0,12.8-6.276,28.823,28.823,0,0,0,8.231-10.187,31.678,31.678,0,0,0,2.934-14.018q0-8.8-3.667-14.426a30.9,30.9,0,0,0-8.313-8.8,29.594,29.594,0,0,0-8.884-4.319,18.91,18.91,0,0,0-5.379-.978l-0.326-.326a26.766,26.766,0,0,0,16.382-8.313,23.2,23.2,0,0,0,4.645-7.5,24.784,24.784,0,0,0,1.63-8.965,33.748,33.748,0,0,0-1.874-11,25.155,25.155,0,0,0-6.113-9.7,30.888,30.888,0,0,0-11.247-6.846q-7.01-2.606-17.441-2.608H104.007V316.344Zm7.172-63.57V206.156h39.446a53.044,53.044,0,0,1,11.166,1.141,27.273,27.273,0,0,1,9.372,3.83,20.207,20.207,0,0,1,6.52,7.009,21.407,21.407,0,0,1,2.445,10.677q0,10.758-7.335,17.359t-22.168,6.6H111.179Zm0,57.376V258.968h39.446a66.551,66.551,0,0,1,11.655,1.059,32.985,32.985,0,0,1,10.758,3.831,22.962,22.962,0,0,1,7.905,7.579q3.094,4.81,3.1,12.307,0,13.2-8.883,19.8t-24.532,6.6H111.179ZM211.586,199.962v69.764q0,3.912.326,9.046a54.681,54.681,0,0,0,6.031,21.435,31.753,31.753,0,0,0,7.579,9.535,37.59,37.59,0,0,0,12.144,6.765,52.77,52.77,0,0,0,17.6,2.608q13.038,0,21.76-3.831a35.238,35.238,0,0,0,13.937-10.513,40.954,40.954,0,0,0,7.416-15.648,81.223,81.223,0,0,0,2.2-19.4V199.962h-7.172v69.764a75.508,75.508,0,0,1-1.956,17.93,34.777,34.777,0,0,1-6.439,13.61,28.831,28.831,0,0,1-11.736,8.639q-7.254,3.018-18.011,3.016a41.738,41.738,0,0,1-14.426-2.2,30.681,30.681,0,0,1-10.024-5.868,28.51,28.51,0,0,1-6.439-8.313,49.757,49.757,0,0,1-5.3-18.826q-0.328-4.561-.326-7.987V199.962h-7.172Zm150.937,61.614-42.054-61.614h-8.15l46.455,67.645v48.737h7.172V267.607l46.781-67.645H404.74Z"/>
</svg>
