<svg id="Camera" xmlns="http://www.w3.org/2000/svg" width="256" height="256" viewBox="0 0 512 512">
<defs>
    <style>
      .cls-1 {
        fill: #fff;
      }

      .cls-2 {
        fill: none;
        stroke: #232220;
        stroke-linecap: round;
        stroke-linejoin: round;
        stroke-width: 10px;
      }

      .cls-2, .cls-3 {
        fill-rule: evenodd;
      }

      .cls-3 {
        fill: #232220;
      }
    </style>
  </defs>
  <circle id="Main" class="cls-1" cx="255.5" cy="255.5" r="228.5"/>
  <path id="Camera-2" data-name="Camera" class="cls-2" d="M133,187h71.757s4-23,10.517-23H295.68c4.182,0,8.06,23,11.5,23H378a10,10,0,0,1,10,10V338a10,10,0,0,1-10,10H133a10,10,0,0,1-10-10V197A10,10,0,0,1,133,187Z"/>
  <path id="Down" class="cls-3" d="M204.786,254.888c0,65.032,57.28,60.386,57.28,60.386L240.4,336.831h15.317L282.8,309.889l-27.086-26.944H240.4L262.066,304.5s-45.495,4.93-45.495-49.612C207.351,254.888,210.2,254.946,204.786,254.888Z"/>
  <path id="Top" class="cls-3" d="M306.776,279.673c0-65.031-57.28-60.386-57.28-60.386l21.667-21.556H255.846L228.76,224.673l27.086,26.943h15.317L249.5,230.061s45.494-4.93,45.494,49.612C304.21,279.673,301.361,279.615,306.776,279.673Z"/>
</svg>
