<svg id="Chat" xmlns="http://www.w3.org/2000/svg" width="256" height="256" viewBox="0 0 512 512">
<defs>
    <style>
      .cls-1 {
        fill: #fff;
      }

      .cls-2 {
        fill: none;
        stroke: #232220;
        stroke-width: 10px;
        fill-rule: evenodd;
      }
    </style>
  </defs>
  <circle id="Main" class="cls-1" cx="255.5" cy="255.5" r="228.5"/>
  <path id="Ellipse_3_copy" data-name="Ellipse 3 copy" class="cls-2" d="M190.75,307.981c12.646,32.992,50.8,56.963,95.9,56.963a121.528,121.528,0,0,0,37.113-5.709c8.658-2.779,55.932,13,58.1,12.383C365.819,358.04,361.505,338.439,367,332.527,379.558,319.026,387,302.258,387,284.09c0-29.684-19.853-55.632-49.445-69.694"/>
  <path class="cls-2" d="M232.634,141.339c59.206,0,107.2,38.625,107.2,86.273s-48,86.273-107.2,86.273a129.966,129.966,0,0,1-39.648-6.093c-9.25-2.964-59.092,13.558-62.072,13.214,17.139-14.488,21.748-35.4,15.874-41.712-13.413-14.4-21.357-32.3-21.357-51.682C125.431,179.964,173.427,141.339,232.634,141.339Z"/>
</svg>
