<svg id="Apps" xmlns="http://www.w3.org/2000/svg" width="256" height="256" viewBox="0 0 512 512">
<defs>
    <style>
      .cls-1 {
        fill: #fff;
      }

      .cls-2 {
        fill: #232220;
        fill-rule: evenodd;
      }

      .cls-3 {
        fill: none;
        stroke: #232220;
        stroke-width: 10px;
      }
    </style>
  </defs>
  <circle id="Main" class="cls-1" cx="255.5" cy="255.5" r="228.5"/>
  <path id="Main-2" data-name="Main" class="cls-2" d="M118,255.5C118,331.319,179.68,393,255.5,393s137.506-61.681,137.506-137.5-61.685-137.5-137.506-137.5S118,179.685,118,255.5Zm11,0A126.506,126.506,0,1,1,255.5,382,126.645,126.645,0,0,1,129,255.5Z"/>
  <circle id="Round" class="cls-3" cx="256" cy="201" r="29.594"/>
  <path id="Top" class="cls-2" d="M261.869,174.937H250.69V150.308h11.179v24.629Z"/>
  <path id="Left" class="cls-2" d="M240.408,223.4l10.5,3.835L209.548,340.86l-10.5-3.834Z"/>
  <path id="Right" class="cls-2" d="M270.723,223.642L260.2,227.479l41.446,113.7,10.524-3.836Z"/>
  <path id="Smile" class="cls-2" d="M183,294s31.11,11,73,11,74-11,74-11v10s-44.783,12-74,12c-29.562,0-73-11-73-11V294Z"/>
</svg>
