<svg id="Earth" xmlns="http://www.w3.org/2000/svg" width="256" height="256" viewBox="0 0 512 512">
<defs>
    <style>
      .cls-1 {
        fill: #fff;
      }

      .cls-2 {
        fill: #232220;
      }

      .cls-2, .cls-3 {
        fill-rule: evenodd;
      }

      .cls-3 {
        fill: none;
        stroke: #232220;
        stroke-width: 10px;
      }
    </style>
  </defs>
  <circle id="Main" class="cls-1" cx="255.5" cy="255.5" r="228.5"/>
  <path id="OuterRound" class="cls-2" d="M118,255.614C118,331.369,179.682,393,255.5,393S393,331.369,393,255.614,331.318,118.228,255.5,118.228,118,179.858,118,255.614Zm11,0c0-69.695,56.748-126.4,126.5-126.4s126.5,56.7,126.5,126.4-56.748,126.4-126.5,126.4S129,325.309,129,255.614Z"/>
  <path id="InnerRound" class="cls-3" d="M256.061,123.608c39.985,0,72.4,58.975,72.4,131.726s-32.413,131.725-72.4,131.725-72.4-58.975-72.4-131.725S216.077,123.608,256.061,123.608Z"/>
  <path id="Middle2" class="cls-2" d="M250.449,124.4h11.224V387.953H250.449V124.4Z"/>
  <path id="Middle" class="cls-2" d="M387.949,250.567v11.215H124.173V250.567H387.949Z"/>
  <path id="Top" class="cls-2" d="M362.7,172.621q1.4,5.311,2.8,10.621c-70.947,28.44-147.37,28.44-218.316,0q1.4-5.31,2.8-10.621C219.109,200.332,293.574,200.332,362.7,172.621Z"/>
  <path id="Bottom" class="cls-2" d="M362.7,333.559q1.4-5.31,2.8-10.62c-70.947-28.44-147.37-28.44-218.316,0q1.4,5.31,2.8,10.62C219.109,305.849,293.574,305.849,362.7,333.559Z"/>
</svg>
