<svg id="Genesis" xmlns="http://www.w3.org/2000/svg" width="256" height="256" viewBox="0 0 512 512">
<defs>
    <style>
      .cls-1 {
        fill: #fafb48;
      }

      .cls-1, .cls-2 {
        fill-rule: evenodd;
      }

      .cls-2 {
        fill: #232220;
      }
    </style>
  </defs>
  <path id="Full" class="cls-1" d="M11,256c0,135.094,109.906,245,245,245S501,391.094,501,256,391.094,11,256,11,11,120.906,11,256Z"/>
  <path id="G" class="cls-2" d="M298,250.006h61V382.867s-34.749,13.4-76,12.987V435H262V396.851C259.4,396.5,251,396,251,396v39H228V392.857c-15.753-3.12-98-23-98-136.857,0-107.789,84.174-134.154,98-135.858V77h23v39.146s7.565-.509,11-1V77h21v39.146c50.972,4.351,72,19.98,72,19.98l-17,48.948s-27.647-16.982-64-16.982c-76.974,0-81,60.847-81,87.908s7.34,89.906,78,89.906a208.222,208.222,0,0,0,27-2v-93.9Z"/>
</svg>
