<svg id="Portfolio" xmlns="http://www.w3.org/2000/svg" width="256" height="256" viewBox="0 0 512 512">
<defs>
    <style>
      .cls-1 {
        fill: #fff;
      }

      .cls-2, .cls-4 {
        fill: none;
        stroke: #232220;
        stroke-linecap: round;
        stroke-linejoin: round;
        stroke-width: 10px;
      }

      .cls-3 {
        fill: #232220;
      }

      .cls-3, .cls-4 {
        fill-rule: evenodd;
      }
    </style>
  </defs>
  <circle id="Main" class="cls-1" cx="255.5" cy="255.5" r="228.5"/>
  <circle id="Pie" class="cls-2" cx="256" cy="283" r="68"/>
  <path id="PieLine" class="cls-3" d="M251,214h10v70H251V214Z"/>
  <path id="PieLine2" class="cls-3" d="M323,277v10H253V277h70Z"/>
  <path id="PieLine3" class="cls-3" d="M307.5,326.3l-7.071,7.071-49.5-49.5L258,276.8Z"/>
  <path id="Folder" class="cls-4" d="M133,189H378a10,10,0,0,1,10,10V364a10,10,0,0,1-10,10H133a10,10,0,0,1-10-10V199A10,10,0,0,1,133,189Z"/>
  <path id="Folder2" class="cls-4" d="M123,214V146a10,10,0,0,1,10-10h61.448c5.852,0,11.96,24,18.243,24H378a10,10,0,0,1,10,10v44"/>
</svg>
