<svg id="Question" xmlns="http://www.w3.org/2000/svg" width="256" height="256" viewBox="0 0 512 512">
<defs>
    <style>
      .cls-1 {
        fill: #fff;
      }

      .cls-2 {
        fill: #232220;
        fill-rule: evenodd;
      }
    </style>
  </defs>
  <circle id="Main" class="cls-1" cx="255.5" cy="255.5" r="228.5"/>
  <path id="_" data-name="?" class="cls-2" d="M281.425,330.388V384.75H226V330.388h55.421ZM175.7,178.951A82.847,82.847,0,0,1,193,151.417a77.957,77.957,0,0,1,26.828-18.179q15.7-6.528,35.124-6.531,25.06,0,41.83,6.884t27.005,17.12a61.94,61.94,0,0,1,14.649,22.063,63.418,63.418,0,0,1,4.413,22.062q0,16.944-4.413,27.887a68.816,68.816,0,0,1-10.943,18.709,73,73,0,0,1-14.473,13.238q-7.942,5.477-15,10.943a70.185,70.185,0,0,0-12.532,12.531q-5.476,7.065-6.883,17.65v13.414H230.946V293.323q1.059-15.174,5.825-25.416a72.962,72.962,0,0,1,11.119-17.473A88.856,88.856,0,0,1,261.3,237.9q7.058-5.295,13.061-10.59a47.423,47.423,0,0,0,9.707-11.649q3.707-6.354,3.354-15.885,0-16.233-7.943-24t-22.062-7.766a34.152,34.152,0,0,0-16.414,3.707,32.754,32.754,0,0,0-11.3,9.884,42.859,42.859,0,0,0-6.53,14.473,71.882,71.882,0,0,0-2.118,17.826H169.171A100.761,100.761,0,0,1,175.7,178.951Z"/>
</svg>
