<svg id="Quit" data-name="Quit" xmlns="http://www.w3.org/2000/svg" width="256" height="256" viewBox="0 0 512 512">
<defs>
    <style>
      .cls-1 {
        fill: #fff;
      }

      .cls-2 {
        fill: #232220;
        fill-rule: evenodd;
      }
    </style>
  </defs>
  <circle id="Main" class="cls-1" cx="255.5" cy="255.5" r="228.5"/>
  <path id="Round" class="cls-2" d="M308.768,146.683c61.586,29.385,87.794,103.418,58.424,165.033a123.855,123.855,0,0,1-164.954,58.452c-61.586-29.385-87.794-103.418-58.424-165.033a123.185,123.185,0,0,1,57.976-58.18c4.436-4.782,1.564-10.328-4.773-9.644A133.89,133.89,0,0,0,134.1,200.5c-31.925,66.973-3.437,147.444,63.5,179.384s147.373,3.438,179.3-63.535,3.437-147.443-63.5-179.383C306.583,134.5,302.112,141.742,308.768,146.683Z"/>
  <path id="Line" class="cls-2" d="M260.609,291.4c0,8.687-11.047,8.3-11.047,0V124.511c0-8.6,11.047-8.779,11.047,0V291.4Z"/>
</svg>
