<svg id="Sell" data-name="Sell" xmlns="http://www.w3.org/2000/svg" width="512" height="512" viewBox="0 0 512 512">
<defs>
    <style>
      .cls-1 {
        fill: #eb2d3a;
      }

      .cls-1, .cls-2 {
        fill-rule: evenodd;
      }

      .cls-2 {
        fill: #e6e6e6;
      }
    </style>
  </defs>
  <path id="Main" class="cls-1" d="M10,255c0,135.094,109.906,245,245,245S500,390.094,500,255,390.094,10,255,10,10,119.906,10,255Zm19.6,0C29.6,130.714,130.714,29.6,255,29.6S480.4,130.714,480.4,255,379.286,480.4,255,480.4,29.6,379.286,29.6,255Z"/>
  <path id="SELL" class="cls-2" d="M157.137,233.214a39.525,39.525,0,0,0-4.075-16.463,31.808,31.808,0,0,0-9.535-11.166,40.627,40.627,0,0,0-13.855-6.357,68.158,68.158,0,0,0-17.034-2.037A58.235,58.235,0,0,0,98.783,198.9a40.51,40.51,0,0,0-12.632,5.379,28.675,28.675,0,0,0-9.128,9.617,27.606,27.606,0,0,0-3.5,14.263q0,8.313,3.423,13.61a27.242,27.242,0,0,0,8.965,8.639,49.848,49.848,0,0,0,12.714,5.3q7.171,1.956,14.507,3.423,7.5,1.467,14.589,3.178a58.335,58.335,0,0,1,12.714,4.564,25.136,25.136,0,0,1,9.046,7.5q3.423,4.646,3.423,11.981,0,7.664-3.341,12.714a27.023,27.023,0,0,1-8.313,8.15,34.434,34.434,0,0,1-10.921,4.4,52.2,52.2,0,0,1-11.166,1.3,70.368,70.368,0,0,1-16.463-1.875,37.489,37.489,0,0,1-13.61-6.112,29.268,29.268,0,0,1-9.046-10.84q-3.263-6.6-2.771-16.218H70.1q-0.164,11.247,3.668,19.071a34.607,34.607,0,0,0,10.514,12.8,43.06,43.06,0,0,0,15.648,7.172,80.492,80.492,0,0,0,19.234,2.2A60.681,60.681,0,0,0,133.1,317.4a40.954,40.954,0,0,0,13.2-5.623,33.039,33.039,0,0,0,9.861-10.106q3.912-6.193,3.912-15.322,0-8.474-3.423-14.1a27.43,27.43,0,0,0-9.046-9.128,50.119,50.119,0,0,0-12.714-5.542q-7.091-2.035-14.589-3.5-7.335-1.467-14.507-3.1a58.935,58.935,0,0,1-12.714-4.32,24.894,24.894,0,0,1-8.965-7.09q-3.423-4.4-3.423-11.41a21.7,21.7,0,0,1,3.1-11.981,23.673,23.673,0,0,1,7.906-7.661,33.28,33.28,0,0,1,10.432-3.993,53.159,53.159,0,0,1,10.513-1.141,55.186,55.186,0,0,1,14.752,1.874,33.77,33.77,0,0,1,11.654,5.624,27.343,27.343,0,0,1,7.743,9.291,31.222,31.222,0,0,1,3.178,13.04h7.172Zm24.449,83.13h79.055V310.15H188.758V258.968h66.83v-6.194h-66.83V206.156h71.068v-6.194h-78.24V316.344Zm96.169,0h73.187V310.15H284.927V199.962h-7.172V316.344Zm86.39,0h73.187V310.15H371.317V199.962h-7.172V316.344Z"/>
</svg>
