<svg id="Tools" xmlns="http://www.w3.org/2000/svg" width="256" height="256" viewBox="0 0 512 512">
<defs>
    <style>
      .cls-1 {
        fill: #fff;
      }

      .cls-2 {
        fill: #232220;
        fill-rule: evenodd;
      }
    </style>
  </defs>
  <circle id="Main" class="cls-1" cx="255.5" cy="255.5" r="228.5"/>
  <path class="cls-2" d="M244.287,233.176l12.6-12.552L243.51,207.239a24.067,24.067,0,0,1-6.825-20.161,56.68,56.68,0,0,0-64.537-63.537,3.382,3.382,0,0,0-1.887,5.72l17.147,17.162a20.829,20.829,0,0,1,0,29.491l-10.543,10.553a20.787,20.787,0,0,1-29.466,0l-17.2-17.162a3.383,3.383,0,0,0-5.715,1.888,56.68,56.68,0,0,0,63.482,64.593,23.96,23.96,0,0,1,20.143,6.831l13.318,13.33,12.6-12.552m37.734,37.822-12.6,12.553,77.078,77.144a25.045,25.045,0,0,0,35.4-35.434l-77.022-77.089-12.6,12.552m41.508-62.538h33.24l33.239-66.481-16.592-16.606-66.479,33.213V191.8L216.6,281.94l-16.259-16.218-65.481,65.537a34.937,34.937,0,1,0,49.388,49.43l65.48-65.537-16.592-16.606Z"/>
</svg>
