<svg xmlns="http://www.w3.org/2000/svg" width="42" height="50" viewBox="0 0 42 50">
  <g fill="#84888F">
    <path d="M30.987013,11.6753247 C26.6233766,11.6753247 24.7792208,13.8181818 21.7402597,13.8181818 C18.6233766,13.8181818 16.2467532,11.6883117 12.4675325,11.6883117 C8.76623377,11.6883117 4.81818182,14.012987 2.31168831,17.974026 C-1.20779221,23.5584416 -0.61038961,34.0779221 5.09090909,43.038961 C7.12987013,46.2467532 9.85714286,49.8441558 13.4285714,49.8831169 C13.4545455,49.8831169 13.4675325,49.8831169 13.4935065,49.8831169 C16.5974026,49.8831169 17.5194805,47.7922078 21.7922078,47.7662338 C21.8181818,47.7662338 21.8311688,47.7662338 21.8571429,47.7662338 C26.0649351,47.7662338 26.9090909,49.8701299 30,49.8701299 C30.025974,49.8701299 30.038961,49.8701299 30.0649351,49.8701299 C33.6363636,49.8311688 36.5064935,45.8441558 38.5454545,42.6493506 C40.012987,40.3506494 40.5584416,39.1948052 41.6883117,36.5974026 C33.4415584,33.3766234 32.1168831,21.3506494 40.2727273,16.7402597 C37.7792208,13.5324675 34.2857143,11.6753247 30.987013,11.6753247 Z"/>
    <path d="M30.025974,0 C27.4285714,0.181818182 24.4025974,1.88311688 22.6233766,4.1038961 C21.012987,6.11688312 19.6883117,9.1038961 20.2077922,12 C20.2727273,12 20.3376623,12 20.4155844,12 C23.1818182,12 26.012987,10.2857143 27.6623377,8.09090909 C29.2597403,6 30.4675325,3.03896104 30.025974,0 Z"/>
  </g>
</svg>
