<svg xmlns="http://www.w3.org/2000/svg" width="43" height="50" viewBox="0 0 43 50">
  <path fill="#84888F" d="M40.4352679,40.625 C39.6875,40.1785714 38.9620536,39.3973214 39.0959821,38.5267857 C39.3526786,36.8191964 39.375,36.1272321 39.0736607,35.6473214 C38.8616071,35.2901786 38.4598214,35.0892857 38.1138393,35 C38.3370536,34.7209821 38.4598214,34.3973214 38.5379464,33.7834821 C38.6830357,32.6674107 38.0133929,29.2075893 37.1205357,26.4508929 C36.2276786,23.6941964 33.7834821,20.8705357 32.1316964,18.8616071 C29.2299107,15.3125 29.5870536,14.4866071 29.1964286,7.734375 C28.9508929,3.4375 27.0424107,0 21.4285714,0 C15.8147321,0 13.9508929,3.57142857 13.9508929,6.58482143 C13.9508929,9.78794643 14.1741071,12.2767857 14.1741071,12.2767857 C14.3191964,16.0044643 14.2857143,16.6741071 13.28125,18.4486607 C12.734375,19.4196429 10.2678571,21.796875 9.296875,23.4375 C8.32589286,25.078125 8.44866071,26.7299107 6.55133929,29.3303571 C5.16741071,31.2276786 5.01116071,32.5 5.46875,34.2410714 C4.6875,35.15625 5.06696429,36.4620536 4.91071429,37.0200893 C4.62053571,37.9910714 3.38169643,38.1696429 2.421875,38.2477679 C1.46205357,38.3258929 0.714285714,38.2477679 0.334821429,38.8392857 C-0.0446428571,39.4308036 0.412946429,40.625 0.814732143,42.1875 C1.21651786,43.75 0,43.8616071 0,45.6473214 C0,47.4330357 3.34821429,47.4330357 6.66294643,48.1808036 C9.97767857,48.9285714 11.2053571,50 12.9129464,50 C14.6205357,50 15.9040179,48.8616071 17.1540179,47.8459821 C17.9575893,47.1875 20.390625,47.4330357 21.875,47.4330357 C23.359375,47.4330357 25.703125,47.3660714 26.9754464,47.7008929 C28.2477679,48.0357143 28.2366071,50 31.3616071,50 C34.4866071,50 35.234375,47.6897321 38.1696429,46.171875 C41.1049107,44.6540179 42.8571429,43.9397321 42.8571429,42.8571429 C42.8571429,41.7745536 41.1830357,41.0714286 40.4352679,40.625 Z M15.15625,46.8191964 C15.0111607,48.2700893 13.75,48.7276786 12.4665179,48.6160714 C11.015625,48.4933036 9.22991071,47.7678571 7.54464286,47.265625 C5.859375,46.7633929 3.58258929,46.4285714 2.07589286,46.1607143 C0.368303571,45.859375 2.07589286,44.6428571 2.05357143,42.34375 C2.04241071,41.4508929 1.26116071,40.1785714 1.58482143,39.5870536 C1.90848214,38.9955357 3.515625,39.3191964 4.07366071,39.1629464 C4.63169643,39.0066964 5.49107143,38.5267857 5.78125,37.8348214 C5.9375,37.4553571 5.98214286,35.859375 6.10491071,35.2901786 C6.22767857,34.7433036 6.98660714,34.4866071 8.58258929,35.3013393 C10.1785714,36.1160714 11.8080357,39.5535714 13.3035714,41.9754464 C14.7991071,44.3973214 15.3013393,45.3683036 15.15625,46.8191964 Z M28.3816964,39.4754464 C28.6049107,40.625 28.7388393,42.2098214 28.4598214,43.5267857 C28.1808036,44.84375 27.6785714,45.2566964 27.265625,46.09375 C27.0200893,45.3348214 27.8571429,44.5535714 27.7566964,42.65625 C27.7008929,41.5959821 27.6674107,41.7857143 26.4732143,42.8571429 C25.1116071,44.0625 23.3928571,45.1004464 20.5580357,45.3683036 C18.2142857,45.5915179 16.9308036,44.4419643 16.9308036,44.4419643 C17.4888393,46.2276786 16.4508929,47.1986607 16.4508929,47.1986607 C16.484375,46.7857143 16.5401786,45.6026786 16.171875,44.7879464 C15.7254464,43.7834821 15.1339286,42.7008929 15.1339286,42.7008929 C15.1339286,42.7008929 16.09375,42.3995536 16.4285714,41.5848214 C16.7633929,40.7700893 16.6517857,39.6540179 15.4575893,38.4933036 C14.2633929,37.3325893 9.59821429,34.296875 9.21875,33.7946429 C8.671875,33.0691964 8.47098214,32.65625 8.4375,31.2053571 C8.40401786,29.7544643 9.04017857,28.4375 8.91741071,28.9397321 C8.828125,29.296875 8.92857143,29.6986607 8.92857143,31.1495536 C8.92857143,32.6004464 9.77678571,33.75 10.4799107,33.9397321 C11.5401786,34.2299107 10.703125,31.0267857 11.3727679,28.0133929 C12.0424107,25 12.6785714,24.3526786 13.515625,23.125 C14.3526786,21.8973214 15.6584821,20.8370536 15.4129464,18.3147321 C15.1674107,15.7924107 15.4017857,16.0714286 15.9821429,16.9977679 C16.4285714,17.7232143 17.4665179,19.6763393 18.7388393,19.453125 C20.9040179,19.0848214 23.6383929,16.7075893 24.0513393,16.3058036 C24.4642857,15.9040179 24.1294643,15.5133929 23.7946429,15.6584821 C22.0647321,16.40625 18.8504464,18.0580357 18.046875,17.6897321 C17.2433036,17.3214286 16.0267857,15.390625 16.171875,15.5133929 C17.890625,17.03125 18.3928571,16.7522321 19.1183036,16.5178571 C20.0558036,16.2053571 20.546875,16.0379464 22.2991071,15.2566964 C24.0513393,14.4754464 24.609375,14.6651786 24.7879464,14.2857143 C24.9665179,13.90625 24.7433036,13.5379464 24.2633929,13.6495536 C23.5491071,13.8169643 23.8839286,14.21875 21.7299107,15.0223214 C18.90625,16.0825893 18.0133929,16.171875 16.8191964,15.3571429 C15.859375,14.6986607 15.1450893,13.9397321 15.1450893,13.4933036 C15.1450893,13.046875 16.0714286,12.5669643 16.5178571,12.2321429 C16.9642857,11.8973214 17.890625,11.015625 17.890625,11.015625 C17.890625,11.015625 18.0022321,10.2120536 17.8236607,9.59821429 C17.6116071,8.87276786 16.953125,8.56026786 16.4955357,8.69419643 C16.0379464,8.81696429 15.6026786,9.30803571 15.7366071,10.3459821 C15.8482143,11.2723214 16.5178571,11.5736607 16.5178571,11.5736607 C16.5178571,11.5736607 16.2165179,11.9642857 15.9375,12.0982143 C15.9375,12.0982143 15.8482143,12.0647321 15.546875,11.3950893 C15.2455357,10.7254464 14.8102679,9.21875 15.5133929,7.92410714 C16.2165179,6.62946429 17.7008929,7.34375 18.1696429,8.34821429 C18.6049107,9.27455357 18.4375,10.8816964 18.4375,10.8816964 C19.1071429,10.6361607 19.8883929,10.6584821 20.78125,11.2723214 C19.9888393,7.94642857 21.8415179,6.68526786 23.2366071,6.68526786 C24.6316964,6.68526786 25.7254464,7.75669643 25.7254464,9.47544643 C25.7254464,10.8147321 25.3348214,11.5066964 24.9553571,11.9308036 C24.4977679,11.875 24.0401786,11.7633929 24.2522321,11.5513393 C24.3973214,11.3950893 24.7433036,10.9151786 24.7433036,10.078125 C24.7433036,9.24107143 24.0848214,8.54910714 23.2142857,8.54910714 C22.1875,8.54910714 21.8080357,9.47544643 21.6852679,10 C21.5625,10.5245536 21.640625,10.9598214 21.6629464,11.1607143 C21.7299107,11.71875 22.8794643,12.2321429 24.3303571,12.6004464 C25.78125,12.96875 25.5915179,13.6049107 25.2566964,15.4241071 C24.921875,17.2433036 25.9598214,17.4665179 26.8526786,19.1964286 C27.7455357,20.9263393 27.4888393,21.6294643 28.6272321,23.125 C29.765625,24.6205357 30.7477679,28.4598214 30.4575893,31.6964286 C30.3571429,32.8683036 30.0223214,32.8348214 31.2723214,32.4441964 C31.8973214,32.2544643 32.6116071,32.1428571 32.6116071,32.1428571 C32.9575893,31.4397321 32.9910714,30.3236607 33.0022321,29.6540179 C33.0245536,28.1473214 33.0803571,25.0223214 30.0223214,21.6741071 C30.0223214,21.6741071 33.3147321,24.0959821 33.8169643,28.59375 C34.0959821,31.0825893 33.59375,32.2098214 33.59375,32.2098214 C34.1852679,32.3549107 34.6875,33.0245536 35,33.5267857 C35.4129464,34.2075893 34.5647321,32.8794643 32.7678571,32.8794643 C31.8191964,32.8794643 31.0602679,33.3147321 30.703125,33.7611607 C30.3459821,34.2075893 30.3571429,34.609375 30.3459821,35.0669643 C29.5535714,34.9330357 28.9620536,35.0669643 28.4709821,35.6138393 C27.8459821,36.3950893 28.1584821,38.3147321 28.3816964,39.4754464 Z M38.4375,44.7433036 C35.7477679,45.9040179 34.7879464,47.3660714 33.1138393,48.2589286 C31.4397321,49.1517857 30.0223214,48.515625 29.3526786,47.3660714 C28.6830357,46.2165179 30.5133929,44.21875 29.8772321,40.7142857 C29.3861607,38.0133929 29.1741071,37.2544643 29.3303571,36.6071429 C29.4866071,35.9933036 30.3794643,36.1160714 30.6138393,36.171875 C30.7589286,36.7745536 31.3616071,38.3482143 33.6272321,38.3482143 C33.6272321,38.3482143 36.2165179,38.6383929 37.2767857,35.9821429 C37.2767857,35.9821429 37.9129464,35.9598214 38.0803571,36.3727679 C38.3370536,37.0200893 37.7566964,38.2142857 37.7678571,38.75 C37.8013393,40.5022321 39.0736607,41.1049107 40.9375,42.3214286 C41.8526786,42.9464286 41.171875,43.5602679 38.4375,44.7433036 Z"/>
</svg>
